<svg xmlns="http://www.w3.org/2000/svg" viewBox="0 0 260.17 277.35"><defs><style>.cls-1{fill:#49c5b6;}.cls-2{fill:#231f20;}.cls-3{font-size:45.24px;font-family:Cambay-Bold, Cambay;font-weight:700;}</style></defs><g id="Layer_2" data-name="Layer 2"><g id="Layer_1-2" data-name="Layer 1"><path class="cls-1" d="M159.82,212.42h-57.1a7.67,7.67,0,0,1-6.64-11.5L98.9,196l6.72-11.65L115.09,168l6.72-11.65,2.82-4.88a7.67,7.67,0,0,1,13.28,0l2.82,4.88L147.46,168l9.46,16.38L163.64,196l2.82,4.89A7.66,7.66,0,0,1,159.82,212.42Z"/><path class="cls-2" d="M226.93,212.42H199.72a9.36,9.36,0,0,1-8.1-4.67l-11.56-20-10.13-17.56-14.26-24.7-10.14-17.55-6.16-10.67a9.35,9.35,0,0,0-16.2,0L117,127.91l-10.13,17.55-14.27,24.7L82.48,187.71l-11.56,20a9.36,9.36,0,0,1-8.1,4.67H35.63a9.35,9.35,0,0,1-8.1-14l6.17-10.69,10.13-17.55,14.26-24.7,10.13-17.55,14.26-24.7L92.62,85.65,106.88,61,117,43.4l14.27-24.7,7.43-12.87a9.34,9.34,0,0,1,8.1-4.68h76a9.35,9.35,0,0,1,8.09,14l-2,3.52-11.56,20a9.36,9.36,0,0,1-8.1,4.67h-38a9.34,9.34,0,0,0-8.1,4.68l-4.73,8.2a9.35,9.35,0,0,0,0,9.35l11.56,20,10.14,17.55,14.26,24.71,10.13,17.55,14.27,24.7,10.13,17.55L235,198.4A9.35,9.35,0,0,1,226.93,212.42Z"/><rect class="cls-1" x="18.42" width="43.02" height="39.83" rx="13.91"/><text class="cls-3" transform="translate(0 248.91)">KODO <tspan class="cls-1" x="145.38" y="0">APEX</tspan></text></g></g></svg>